<svg width="225" height="33" viewBox="0 0 225 33" fill="none" xmlns="http://www.w3.org/2000/svg">
<path d="M33.4603 0.296692C29.6606 0.296692 26.2183 1.84838 23.7314 4.35134C21.2432 1.84838 17.8009 0.296692 14.0021 0.296692C6.43444 0.296692 0.278168 6.45253 0.278168 14.0202V32.9618H8.2661V14.0202C8.2661 10.8577 10.8392 8.28462 14.0021 8.28462C17.1641 8.28462 19.7364 10.8577 19.7364 14.0202V32.9618H27.7252V14.0202C27.7252 10.8577 30.2974 8.28462 33.4603 8.28462C36.6222 8.28462 39.1946 10.8577 39.1946 14.0202V32.9618H47.1833V14.0202C47.1833 6.45253 41.0271 0.296692 33.4603 0.296692Z" fill="white"/>
<path d="M72.4603 19.1823C72.4603 22.3448 69.8887 24.917 66.7269 24.917C63.564 24.917 60.9917 22.3448 60.9917 19.1823V0.314316H53.0037V19.1823C53.0037 26.7495 59.1592 32.9062 66.7269 32.9062C74.2938 32.9062 80.4495 26.7495 80.4495 19.1693V0.314316H72.4603V19.1823Z" fill="white"/>
<path d="M113.113 32.9062H121.103V0.296665H113.113V32.9062Z" fill="white"/>
<path d="M102.381 0.297413C93.4797 0.401676 86.2684 7.67515 86.2684 16.6008C86.2684 25.5265 93.4797 32.8004 102.381 32.9045L107.293 32.9062V24.917H102.575C97.9892 24.917 94.2577 21.1864 94.2577 16.6008C94.2577 12.0157 97.9892 8.28503 102.575 8.28503H107.293V0.296665H102.381V0.297413Z" fill="white"/>
<path d="M11.5719 12.1578C10.9814 12.8513 10.685 13.7953 10.685 14.9911C10.685 16.1738 10.9814 17.1153 11.5719 17.8151C12.1611 18.5141 12.9576 18.8638 13.96 18.8638C14.9491 18.8638 15.7422 18.5141 16.339 17.8151C16.935 17.1153 17.2334 16.1738 17.2334 14.9911C17.2334 13.8075 16.9379 12.8668 16.3474 12.1666C15.7581 11.4672 14.9617 11.1179 13.96 11.1179C12.9576 11.1179 12.1611 11.4643 11.5719 12.1578Z" fill="white"/>
<path d="M31.051 12.1578C30.4592 12.8513 30.1651 13.7953 30.1651 14.9911C30.1651 16.1738 30.4592 17.1153 31.051 17.8151C31.6404 18.5141 32.4368 18.8638 33.4392 18.8638C34.4282 18.8638 35.2214 18.5141 35.8182 17.8151C36.4142 17.1153 36.7126 16.1738 36.7126 14.9911C36.7126 13.8075 36.4171 12.8668 35.8266 12.1666C35.2373 11.4672 34.4408 11.1179 33.4392 11.1179C32.4368 11.1179 31.6404 11.4643 31.051 12.1578Z" fill="white"/>
<path d="M148.035 0.58995V13.667H144.849V5.48861L142.017 13.667H139.259L136.41 5.47183V13.667H133.225V0.58995H137.118L140.676 9.69971L144.159 0.58995H148.035Z" fill="white"/>
<path d="M153.325 0.496676V8.09789C153.325 8.96676 153.52 9.63204 153.912 10.0906C154.302 10.5504 154.87 10.7799 155.615 10.7799C156.36 10.7799 156.929 10.5504 157.321 10.0906C157.711 9.63204 157.907 8.96676 157.907 8.09789V0.496676H161.092V8.09789C161.092 9.33959 160.851 10.3865 160.366 11.236C159.881 12.0871 159.219 12.7272 158.382 13.1547C157.543 13.5834 156.596 13.7977 155.541 13.7977C154.486 13.7977 153.553 13.5872 152.747 13.1643C151.939 12.7424 151.307 12.1022 150.847 11.246C150.387 10.3887 150.156 9.33959 150.156 8.09789V0.496676H153.325Z" fill="white"/>
<path d="M172.149 11.8799C171.796 12.4629 171.272 12.9294 170.584 13.277C169.894 13.6246 169.058 13.7977 168.078 13.7977C166.601 13.7977 165.383 13.4375 164.427 12.7171C163.47 11.9984 162.949 10.9918 162.863 9.69972H166.252C166.302 10.1969 166.478 10.5883 166.784 10.8736C167.088 11.1595 167.476 11.302 167.948 11.302C168.357 11.302 168.68 11.1902 168.916 10.9662C169.152 10.7438 169.27 10.4454 169.27 10.0721C169.27 9.73759 169.162 9.45762 168.943 9.2336C168.727 9.01044 168.457 8.8272 168.133 8.68431C167.811 8.54142 167.365 8.37119 166.792 8.17192C165.959 7.88657 165.281 7.61036 164.752 7.34352C164.225 7.07614 163.771 6.67899 163.392 6.15068C163.013 5.62312 162.825 4.93717 162.825 4.09241C162.825 3.31017 163.023 2.63348 163.421 2.06278C163.818 1.4911 164.367 1.05361 165.07 0.748887C165.77 0.444167 166.575 0.292773 167.482 0.292773C168.948 0.292773 170.112 0.640858 170.975 1.33562C171.839 2.03082 172.325 2.98694 172.437 4.20421H168.991C168.929 3.77005 168.77 3.42498 168.516 3.17072C168.261 2.91593 167.916 2.78778 167.482 2.78778C167.11 2.78778 166.807 2.88828 166.578 3.08615C166.348 3.28542 166.235 3.57626 166.235 3.96168C166.235 4.27275 166.336 4.53669 166.542 4.75275C166.746 4.97085 167.003 5.14817 167.314 5.28396C167.625 5.42137 168.072 5.59504 168.656 5.80604C169.499 6.09268 170.189 6.37469 170.723 6.65381C171.258 6.93324 171.717 7.34018 172.101 7.87355C172.486 8.40767 172.679 9.1033 172.679 9.96119C172.679 10.656 172.502 11.2948 172.149 11.8799Z" fill="white"/>
<path d="M177.635 3.03073V5.78795H182.086V8.19085H177.635V11.1153H182.646V13.667H174.449V0.496668H182.646V3.03073H177.635Z" fill="white"/>
<path d="M188.225 4.26931C187.609 4.9461 187.303 5.86866 187.303 7.03621C187.303 8.19086 187.609 9.11051 188.225 9.79344C188.839 10.4765 189.668 10.8178 190.713 10.8178C191.742 10.8178 192.568 10.4765 193.19 9.79344C193.81 9.11051 194.12 8.19086 194.12 7.03621C194.12 5.88082 193.814 4.96246 193.198 4.27813C192.584 3.59649 191.755 3.25433 190.713 3.25433C189.668 3.25433 188.839 3.59219 188.225 4.26931ZM194.092 1.15819C195.105 1.73535 195.902 2.53729 196.486 3.56109C197.071 4.58586 197.361 5.74503 197.361 7.03621C197.361 8.3274 197.066 9.48872 196.477 10.5189C195.887 11.5507 195.086 12.3544 194.075 12.9319C193.061 13.5094 191.941 13.7977 190.713 13.7977C189.482 13.7977 188.36 13.5094 187.349 12.9319C186.337 12.3544 185.536 11.5507 184.945 10.5189C184.357 9.48872 184.062 8.3274 184.062 7.03621C184.062 5.74503 184.357 4.58586 184.945 3.56109C185.536 2.53729 186.337 1.73535 187.349 1.15819C188.36 0.581136 189.482 0.292773 190.713 0.292773C191.953 0.292773 193.081 0.581136 194.092 1.15819Z" fill="white"/>
<path d="M210.467 9.82915C211.156 9.17183 211.501 8.2467 211.501 7.05385C211.501 5.86187 211.156 4.93717 210.467 4.27812C209.779 3.62037 208.812 3.29176 207.57 3.29176H206.061V10.8178H207.57C208.812 10.8178 209.779 10.4882 210.467 9.82915ZM213.895 10.4916C213.342 11.4916 212.547 12.2716 211.51 12.8293C210.472 13.3883 209.253 13.667 207.851 13.667H202.876V0.496668H207.851C209.265 0.496668 210.488 0.770716 211.52 1.31624C212.55 1.86349 213.342 2.63347 213.895 3.62672C214.447 4.62029 214.723 5.76191 214.723 7.05385C214.723 8.34633 214.447 9.49215 213.895 10.4916Z" fill="white"/>
<path d="M219.716 3.03073V5.78795H224.168V8.19085H219.716V11.1153H224.727V13.667H216.531V0.496668H224.727V3.03073H219.716Z" fill="white"/>
<path d="M143.405 20.8485C144.503 21.7308 145.215 22.9219 145.537 24.425H142.166C141.918 23.8171 141.537 23.3384 141.02 22.9913C140.505 22.6428 139.893 22.4688 139.185 22.4688C138.254 22.4688 137.503 22.811 136.93 23.4936C136.36 24.1769 136.075 25.0895 136.075 26.2323C136.075 27.3747 136.36 28.2851 136.93 28.9622C137.503 29.6384 138.254 29.9767 139.185 29.9767C139.893 29.9767 140.505 29.8023 141.02 29.4543C141.537 29.1076 141.918 28.6348 142.166 28.0392H145.537C145.215 29.5291 144.503 30.7186 143.405 31.6063C142.306 32.4944 140.918 32.9387 139.24 32.9387C137.961 32.9387 136.838 32.6563 135.869 32.0909C134.9 31.5248 134.152 30.7346 133.625 29.7154C133.097 28.6978 132.833 27.5361 132.833 26.2323C132.833 24.9277 133.097 23.7668 133.625 22.7488C134.152 21.7308 134.9 20.9389 135.869 20.3732C136.838 19.8086 137.961 19.5262 139.24 19.5262C140.918 19.5262 142.306 19.9671 143.405 20.8485Z" fill="white"/>
<path d="M150.511 19.6565V32.8269H147.327V19.6565H150.511Z" fill="white"/>
<path d="M155.894 22.1897V24.9465H160.347V27.3498H155.894V30.2735H160.907V32.8269H152.709V19.6565H160.907V22.1897H155.894Z" fill="white"/>
<path d="M174.41 32.8269H171.225L165.897 24.7418V32.8269H162.712V19.6565H165.897L171.225 27.8152V19.6565H174.41V32.8269Z" fill="white"/>
<path d="M186.79 20.8485C187.889 21.7308 188.6 22.9219 188.923 24.425H185.551C185.303 23.8171 184.921 23.3384 184.405 22.9913C183.89 22.6428 183.279 22.4688 182.57 22.4688C181.639 22.4688 180.887 22.811 180.316 23.4936C179.745 24.1769 179.46 25.0895 179.46 26.2323C179.46 27.3747 179.745 28.2851 180.316 28.9622C180.887 29.6384 181.639 29.9767 182.57 29.9767C183.279 29.9767 183.89 29.8023 184.405 29.4543C184.921 29.1076 185.303 28.6348 185.551 28.0392H188.923C188.6 29.5291 187.889 30.7186 186.79 31.6063C185.691 32.4944 184.303 32.9387 182.625 32.9387C181.347 32.9387 180.224 32.6563 179.254 32.0909C178.286 31.5248 177.538 30.7346 177.01 29.7154C176.483 28.6978 176.218 27.5361 176.218 26.2323C176.218 24.9277 176.483 23.7668 177.01 22.7488C177.538 21.7308 178.286 20.9389 179.254 20.3732C180.224 19.8086 181.347 19.5262 182.625 19.5262C184.303 19.5262 185.691 19.9671 186.79 20.8485Z" fill="white"/>
<path d="M193.898 19.6565V32.8269H190.71V19.6565H193.898Z" fill="white"/>
<path d="M203.433 28.0013L201.795 23.1581L200.138 28.0013H203.433ZM204.253 30.4231H199.317L198.497 32.8269H195.145L199.968 19.7494H203.638L208.464 32.8269H205.073L204.253 30.4231Z" fill="white"/>
<path d="M218.626 31.038C218.271 31.6222 217.75 32.0887 217.06 32.4355C216.371 32.7831 215.536 32.9572 214.555 32.9572C213.077 32.9572 211.86 32.5973 210.904 31.877C209.948 31.1561 209.425 30.1499 209.339 28.8591H212.73C212.779 29.3555 212.957 29.7468 213.261 30.0322C213.564 30.3184 213.952 30.4605 214.425 30.4605C214.834 30.4605 215.158 30.3491 215.394 30.125C215.63 29.9014 215.748 29.6035 215.748 29.2315C215.748 28.8957 215.639 28.6166 215.422 28.393C215.204 28.1694 214.934 27.9865 214.611 27.8428C214.288 27.7016 213.841 27.5292 213.27 27.3317C212.438 27.0455 211.758 26.7694 211.23 26.502C210.702 26.2347 210.249 25.8375 209.871 25.31C209.492 24.7834 209.3 24.0957 209.3 23.2517C209.3 22.4687 209.5 21.792 209.899 21.2205C210.295 20.6497 210.847 20.2129 211.547 19.9069C212.247 19.6035 213.052 19.4509 213.958 19.4509C215.425 19.4509 216.589 19.7993 217.452 20.4945C218.315 21.1901 218.802 22.1464 218.915 23.3632H215.468C215.405 22.9282 215.247 22.5839 214.992 22.3292C214.739 22.0749 214.395 21.948 213.958 21.948C213.587 21.948 213.285 22.0463 213.056 22.2456C212.826 22.4447 212.711 22.736 212.711 23.1207C212.711 23.4316 212.813 23.6956 213.018 23.9138C213.223 24.1306 213.481 24.3076 213.792 24.4438C214.101 24.5808 214.549 24.7543 215.132 24.9653C215.977 25.2516 216.667 25.5333 217.201 25.8127C217.735 26.0918 218.193 26.4991 218.579 27.0329C218.964 27.5675 219.156 28.2627 219.156 29.1193C219.156 29.8157 218.979 30.455 218.626 31.038Z" fill="white"/>
</svg>
